# xmcd
#
# Track frame offsets:
# 150
# 10911
# 24441
# 31219
# 43432
# 51778
# 59848
# 68056
# 80202
# 92532
# 106901
# 120608
#
# Disc length: 1729 seconds
#
#
# Revision: 0
# Processed by: cddbd v1.5.1PL0 Copyright (c) Steve Scherf et al.
# Submitted via: FreeRIP 2.70 
#
DISCID=a006bf0c
DTITLE=Nelson, Willie - Slow Down Old World
DYEAR=2003
DGENRE=Country
TTITLE0=Blame It On The Times
TTITLE1=You'll Always Have Someone
TTITLE2=Both Ends Of The Candle
TTITLE3=I Can't Find The Time
TTITLE4=Slow Down Old World
TTITLE5=Things To Remember
TTITLE6=You Wouldn't Cross the Street To Say Goodbye
TTITLE7=I Hope So
TTITLE8=Shelter Of Your Arms
TTITLE9=Will You Remember Mine
TTITLE10=No Tomorrow In Sight
TTITLE11=Waiting Time
EXTD=Entered By Itaot...
EXTT0=
EXTT1=
EXTT2=
EXTT3=
EXTT4=
EXTT5=
EXTT6=
EXTT7=
EXTT8=
EXTT9=
EXTT10=
EXTT11=
PLAYORDER=
